<svg width="64" height="64" viewBox="0 0 64 64" fill="none" xmlns="http://www.w3.org/2000/svg">
<path d="M46.1068 11.04L45.9201 21.1466C45.8934 22.5333 46.7736 24.3734 47.8936 25.2L54.5069 30.2133C58.7469 33.4133 58.0535 37.3333 52.9868 38.9333L44.3736 41.6266C42.9336 42.0799 41.4136 43.6534 41.0402 45.12L38.9868 52.9599C37.3602 59.1466 33.3068 59.76 29.9468 54.32L25.2534 46.72C24.4001 45.3333 22.3735 44.2934 20.7735 44.3734L11.8669 44.8266C5.49354 45.1466 3.68018 41.4667 7.84018 36.6133L13.1201 30.48C14.1068 29.3333 14.5601 27.2 14.1068 25.76L11.4136 17.1466C9.84026 12.08 12.6669 9.28 17.7069 10.9333L25.5736 13.52C26.9069 13.9467 28.9069 13.6533 30.0269 12.8266L38.2403 6.90664C42.6669 3.70664 46.2135 5.57336 46.1068 11.04Z" stroke="white" stroke-width="1.5" stroke-linecap="round" stroke-linejoin="round"/>
<path d="M58.4262 58.6667L50.3463 50.5867" stroke="white" stroke-width="1.5" stroke-linecap="round" stroke-linejoin="round"/>
</svg>
